# xmcd CD database file
#
# Track frame offsets:
#	150
#	21359
#	42016
#	64125
#	86442
#	116725
#	142112
#	169580
#	198547
#	224980
#
# Disc length: 3340 seconds
#
# Revision: 4
# Processed by: cddbd v1.5.2PL0 Copyright (c) Steve Scherf et al.
# Submitted via: CDex 1.51
#
DISCID=980d0a0a
DTITLE=Melvin Taylor and The Slack Band - Rendezvous With The Blues
DYEAR=2002
DGENRE=Blues
TTITLE0=Comin' Home Baby
TTITLE1=Help The Poor
TTITLE2=Rendezvous With The Blues
TTITLE3=I'm The Man Down There
TTITLE4=A Tribute To John Lee Hooker: Chill Out - The Healer
TTITLE5=Help Me
TTITLE6=Five Women
TTITLE7=Blue Jean Blues
TTITLE8=Eclipse
TTITLE9=Black Queen
EXTD=YEAR: 2002
EXTT0=
EXTT1=
EXTT2=
EXTT3=
EXTT4=
EXTT5=
EXTT6=
EXTT7=
EXTT8=
EXTT9=
PLAYORDER=
